<svg width="4" height="18" viewBox="0 0 4 18" fill="none" xmlns="http://www.w3.org/2000/svg">
<path d="M2 2V2.01V2ZM2 9V9.01V9ZM2 16V16.01V16ZM2 3C1.4477 3 1 2.55228 1 2C1 1.44772 1.4477 1 2 1C2.5523 1 3 1.44772 3 2C3 2.55228 2.5523 3 2 3ZM2 10C1.4477 10 1 9.5523 1 9C1 8.4477 1.4477 8 2 8C2.5523 8 3 8.4477 3 9C3 9.5523 2.5523 10 2 10ZM2 17C1.4477 17 1 16.5523 1 16C1 15.4477 1.4477 15 2 15C2.5523 15 3 15.4477 3 16C3 16.5523 2.5523 17 2 17Z" stroke="#475569" stroke-width="1.5" stroke-linecap="round" stroke-linejoin="round"/>
</svg>
