<svg width="20" height="19" viewBox="0 0 20 19" fill="none" xmlns="http://www.w3.org/2000/svg">
<path d="M14.5938 5.26088V13.2572C14.5938 15.6562 13.461 17.2554 10.8178 17.2554H4.77606C2.13282 17.2554 1 15.6562 1 13.2572V5.26088C1 2.86197 2.13282 1.2627 4.77606 1.2627H10.8178C13.461 1.2627 14.5938 2.86197 14.5938 5.26088Z" stroke="white" stroke-width="1.18957" stroke-miterlimit="10" stroke-linecap="round" stroke-linejoin="round"/>
<path d="M18.9132 6.86092L17.8631 14.788C17.5481 17.1662 16.3097 18.6154 13.9103 18.2975L8.42592 17.571C6.0265 17.2532 5.2082 15.5315 5.52323 13.1534L6.57334 5.22625C6.88837 2.84812 8.12671 1.39892 10.5261 1.71677L16.0105 2.44329C18.4099 2.76114 19.2282 4.48279 18.9132 6.86092Z" fill="#223F3F" stroke="white" stroke-width="1.18957" stroke-miterlimit="10" stroke-linecap="round" stroke-linejoin="round"/>
<path d="M8.79811 5.7903C8.75639 4.92644 9.32043 4.02624 10.2193 3.97736C10.6968 3.95629 11.2065 4.21699 11.3939 4.72252C11.7976 4.35884 12.3884 4.40954 12.7837 4.66447C13.5454 5.15832 13.5761 6.21788 13.1158 6.94721C12.3845 8.10066 10.826 8.38671 10.4398 8.28323C10.0634 8.17409 8.86806 7.16671 8.79811 5.7903Z" stroke="white" stroke-width="1.18957" stroke-linecap="round" stroke-linejoin="round"/>
</svg>
