<svg width="17" height="20" viewBox="0 0 17 20" fill="none" xmlns="http://www.w3.org/2000/svg">
<path d="M8.5 9.25C8.08579 9.25 7.75 9.58579 7.75 10C7.75 10.4142 8.08579 10.75 8.5 10.75V9.25ZM11.5 10.75C11.9142 10.75 12.25 10.4142 12.25 10C12.25 9.58579 11.9142 9.25 11.5 9.25V10.75ZM8.5 13.25C8.08579 13.25 7.75 13.5858 7.75 14C7.75 14.4142 8.08579 14.75 8.5 14.75V13.25ZM11.5 14.75C11.9142 14.75 12.25 14.4142 12.25 14C12.25 13.5858 11.9142 13.25 11.5 13.25V14.75ZM5.5 9.25C5.08579 9.25 4.75 9.58579 4.75 10C4.75 10.4142 5.08579 10.75 5.5 10.75V9.25ZM5.51 10.75C5.92421 10.75 6.26 10.4142 6.26 10C6.26 9.58579 5.92421 9.25 5.51 9.25V10.75ZM5.5 13.25C5.08579 13.25 4.75 13.5858 4.75 14C4.75 14.4142 5.08579 14.75 5.5 14.75V13.25ZM5.51 14.75C5.92421 14.75 6.26 14.4142 6.26 14C6.26 13.5858 5.92421 13.25 5.51 13.25V14.75ZM14.75 5V17H16.25V5H14.75ZM13.5 18.25H3.5V19.75H13.5V18.25ZM2.25 17V5H0.75V17H2.25ZM3.5 3.75H5.5V2.25H3.5V3.75ZM11.5 3.75H13.5V2.25H11.5V3.75ZM3.5 18.25C2.80964 18.25 2.25 17.6904 2.25 17H0.75C0.75 18.5188 1.98122 19.75 3.5 19.75V18.25ZM14.75 17C14.75 17.6904 14.1904 18.25 13.5 18.25V19.75C15.0188 19.75 16.25 18.5188 16.25 17H14.75ZM16.25 5C16.25 3.48122 15.0188 2.25 13.5 2.25V3.75C14.1904 3.75 14.75 4.30964 14.75 5H16.25ZM2.25 5C2.25 4.30964 2.80964 3.75 3.5 3.75V2.25C1.98122 2.25 0.75 3.48122 0.75 5H2.25ZM8.5 10.75H11.5V9.25H8.5V10.75ZM8.5 14.75H11.5V13.25H8.5V14.75ZM7.5 1.75H9.5V0.25H7.5V1.75ZM9.5 4.25H7.5V5.75H9.5V4.25ZM7.5 4.25C6.80964 4.25 6.25 3.69036 6.25 3H4.75C4.75 4.51878 5.98122 5.75 7.5 5.75V4.25ZM10.75 3C10.75 3.69036 10.1904 4.25 9.5 4.25V5.75C11.0188 5.75 12.25 4.51878 12.25 3H10.75ZM9.5 1.75C10.1904 1.75 10.75 2.30964 10.75 3H12.25C12.25 1.48122 11.0188 0.25 9.5 0.25V1.75ZM7.5 0.25C5.98122 0.25 4.75 1.48122 4.75 3H6.25C6.25 2.30964 6.80964 1.75 7.5 1.75V0.25ZM5.5 10.75H5.51V9.25H5.5V10.75ZM5.5 14.75H5.51V13.25H5.5V14.75Z" fill="#475569"/>
</svg>
