<svg width="14" height="12" viewBox="0 0 14 12" fill="none" xmlns="http://www.w3.org/2000/svg">
<path fill-rule="evenodd" clip-rule="evenodd" d="M0 1C0 0.44772 0.44772 0 1 0H13C13.5523 0 14 0.44772 14 1C14 1.55228 13.5523 2 13 2H1C0.44772 2 0 1.55228 0 1Z" fill="#475569"/>
<path fill-rule="evenodd" clip-rule="evenodd" d="M0 6C0 5.44772 0.44772 5 1 5H13C13.5523 5 14 5.44772 14 6C14 6.5523 13.5523 7 13 7H1C0.44772 7 0 6.5523 0 6Z" fill="#475569"/>
<path fill-rule="evenodd" clip-rule="evenodd" d="M0 11C0 10.4477 0.44772 10 1 10H13C13.5523 10 14 10.4477 14 11C14 11.5523 13.5523 12 13 12H1C0.44772 12 0 11.5523 0 11Z" fill="#475569"/>
</svg>
