<svg width="20" height="21" viewBox="0 0 20 21" fill="none" xmlns="http://www.w3.org/2000/svg">
<path d="M9.81383 12.9021C11.1689 12.9021 12.2673 11.8036 12.2673 10.4486C12.2673 9.09358 11.1689 7.99512 9.81383 7.99512C8.45881 7.99512 7.36035 9.09358 7.36035 10.4486C7.36035 11.8036 8.45881 12.9021 9.81383 12.9021Z" stroke="white" stroke-width="1.22674" stroke-miterlimit="10" stroke-linecap="round" stroke-linejoin="round"/>
<path d="M1.63574 11.1683V9.72895C1.63574 8.87841 2.3309 8.17508 3.18961 8.17508C4.66988 8.17508 5.27507 7.12826 4.53085 5.84427C4.10558 5.10823 4.35911 4.15137 5.10333 3.7261L6.51817 2.91645C7.16425 2.53207 7.99844 2.76106 8.38282 3.40715L8.47278 3.56253C9.20882 4.84652 10.4192 4.84652 11.1634 3.56253L11.2534 3.40715C11.6378 2.76106 12.472 2.53207 13.118 2.91645L14.5329 3.7261C15.2771 4.15137 15.5306 5.10823 15.1054 5.84427C14.3611 7.12826 14.9663 8.17508 16.4466 8.17508C17.2971 8.17508 18.0005 8.87023 18.0005 9.72895V11.1683C18.0005 12.0189 17.3053 12.7222 16.4466 12.7222C14.9663 12.7222 14.3611 13.769 15.1054 15.053C15.5306 15.7972 15.2771 16.7459 14.5329 17.1712L13.118 17.9808C12.472 18.3652 11.6378 18.1362 11.2534 17.4901L11.1634 17.3347C10.4274 16.0508 9.217 16.0508 8.47278 17.3347L8.38282 17.4901C7.99844 18.1362 7.16425 18.3652 6.51817 17.9808L5.10333 17.1712C4.35911 16.7459 4.10558 15.789 4.53085 15.053C5.27507 13.769 4.66988 12.7222 3.18961 12.7222C2.3309 12.7222 1.63574 12.0189 1.63574 11.1683Z" stroke="white" stroke-width="1.22674" stroke-miterlimit="10" stroke-linecap="round" stroke-linejoin="round"/>
</svg>
