<svg width="15" height="16" viewBox="0 0 15 16" fill="none" xmlns="http://www.w3.org/2000/svg">
<g clip-path="url(#clip0)">
<path fill-rule="evenodd" clip-rule="evenodd" d="M7.05047 3.05003C7.32134 3.16223 7.49796 3.42656 7.49796 3.71975V12.4185C7.49796 12.7117 7.32134 12.976 7.05047 13.0882C6.77959 13.2004 6.4678 13.1384 6.26048 12.9311L3.57321 10.2438H1.69877C1.29842 10.2438 0.973877 9.91928 0.973877 9.51893V6.61934C0.973877 6.21899 1.29842 5.89444 1.69877 5.89444H3.57321L6.26048 3.20717C6.4678 2.99985 6.77959 2.93783 7.05047 3.05003Z" fill="white"/>
<path fill-rule="evenodd" clip-rule="evenodd" d="M10.8737 2.94327C11.1568 2.66018 11.6158 2.66018 11.8989 2.94327C13.2099 4.25429 14.022 6.06753 14.022 8.06908C14.022 10.0706 13.2099 11.8839 11.8989 13.1949C11.6158 13.478 11.1568 13.478 10.8737 13.1949C10.5906 12.9118 10.5906 12.4528 10.8737 12.1697C11.9239 11.1195 12.5722 9.67068 12.5722 8.06908C12.5722 6.46748 11.9239 5.01867 10.8737 3.96844C10.5906 3.68535 10.5906 3.22637 10.8737 2.94327ZM8.82337 4.9936C9.10646 4.71051 9.56544 4.71051 9.84853 4.9936C10.2297 5.3748 10.5408 5.82691 10.7602 6.32905C10.9934 6.86283 11.1224 7.45184 11.1224 8.06908C11.1224 9.26993 10.6348 10.3583 9.84853 11.1446C9.56544 11.4276 9.10646 11.4276 8.82337 11.1446C8.54028 10.8615 8.54028 10.4025 8.82337 10.1194C9.34889 9.59388 9.67264 8.86998 9.67264 8.06908C9.67264 7.65536 9.58643 7.26368 9.43169 6.90951C9.28577 6.57552 9.07836 6.27374 8.82337 6.01876C8.54028 5.73567 8.54028 5.27669 8.82337 4.9936Z" fill="white"/>
</g>
<defs>
<clipPath id="clip0">
<rect width="14.498" height="14.498" fill="white" transform="translate(0.249023 0.819824)"/>
</clipPath>
</defs>
</svg>
