<svg width="16" height="16" viewBox="0 0 16 16" fill="none" xmlns="http://www.w3.org/2000/svg">
<path d="M5.37812 13.2905V8.75886C5.37812 7.9246 4.70182 7.2483 3.86756 7.2483H2.357C1.52274 7.2483 0.846436 7.9246 0.846436 8.75886V13.2905C0.846436 14.1248 1.52274 14.8011 2.357 14.8011H3.86756C4.70182 14.8011 5.37812 14.1248 5.37812 13.2905ZM5.37812 13.2905V5.73774C5.37812 4.90348 6.05442 4.22718 6.88868 4.22718H8.39924C9.2335 4.22718 9.9098 4.90348 9.9098 5.73774V13.2905M5.37812 13.2905C5.37812 14.1248 6.05442 14.8011 6.88868 14.8011H8.39924C9.2335 14.8011 9.9098 14.1248 9.9098 13.2905M9.9098 13.2905V2.71662C9.9098 1.88236 10.5861 1.20605 11.4204 1.20605H12.9309C13.7652 1.20605 14.4415 1.88236 14.4415 2.71662V13.2905C14.4415 14.1248 13.7652 14.8011 12.9309 14.8011H11.4204C10.5861 14.8011 9.9098 14.1248 9.9098 13.2905Z" stroke="white" stroke-width="1.18957" stroke-linecap="round" stroke-linejoin="round"/>
</svg>
