<svg width="36" height="45" viewBox="0 0 36 45" fill="none" xmlns="http://www.w3.org/2000/svg">
<g clip-path="url(#clip0)">
<path fill-rule="evenodd" clip-rule="evenodd" d="M29.2962 42.2722C29.2962 41.1132 28.345 40.1738 27.1778 40.1738H8.88899C7.71669 40.1738 6.77063 41.1132 6.77063 42.2722C6.77063 43.4313 7.72183 44.3706 8.88899 44.3706H27.1778C28.3501 44.3706 29.2962 43.4313 29.2962 42.2722Z" fill="#8FA3BC"/>
<path d="M27.7376 34.2653H8.33435V42.494H27.7376V34.2653Z" fill="#0A2445"/>
<path d="M23.7167 35.7958H12.3488V40.8372H23.7167V35.7958Z" fill="#FEEDB4"/>
<path d="M22.8454 40.3587H13.2206C13.1305 40.3587 13.0573 40.287 13.0573 40.1973V36.3612C13.0573 36.2715 13.1305 36.1998 13.2206 36.1998H22.8482C22.9383 36.1998 23.0116 36.2715 23.0116 36.3612V40.1998C23.0116 40.287 22.9383 40.3587 22.8454 40.3587ZM13.384 40.0358H22.682V36.5226H13.384V40.0358Z" fill="#FBCB22"/>
<path fill-rule="evenodd" clip-rule="evenodd" d="M8.33057 33.2287C8.39175 31.5268 13.8931 31.1688 18.0317 28.426C22.1924 31.5213 27.6716 31.5323 27.7327 33.2287V34.2642H8.33057V33.2287Z" fill="#FBCB22"/>
<path d="M26.274 33.4037H9.79124C9.72016 33.4037 9.65796 33.3432 9.65796 33.2716C9.65796 33.2 9.71572 33.1394 9.79124 33.1394H26.2785C26.3496 33.1394 26.4118 33.2 26.4118 33.2716C26.4118 33.3432 26.3496 33.4037 26.274 33.4037Z" fill="#ECA400"/>
<path fill-rule="evenodd" clip-rule="evenodd" d="M15.5302 23.1397C15.5302 23.1397 16.0864 23.9604 16.5481 25.4144C16.6983 25.8881 16.854 26.3948 16.8485 26.929C16.8429 27.4743 16.6705 27.97 16.5203 28.4436C16.0586 29.8811 15.5357 30.7183 15.5357 30.7183C15.5357 32.0842 20.542 32.0842 20.542 30.7183C20.542 30.7183 20.0191 29.8811 19.5574 28.4436C19.4017 27.9645 19.2348 27.4688 19.2292 26.929C19.2237 26.3893 19.3794 25.8881 19.5296 25.4144C19.9913 23.9604 20.5476 23.1397 20.5476 23.1397C20.5476 21.7738 19.4239 20.6613 18.0444 20.6613C16.6538 20.6613 15.5302 21.7683 15.5302 23.1397Z" fill="#ECA400"/>
<path d="M7.0223 17.4343C5.59095 17.4343 3.9266 17.0718 2.58402 16.0391C0.947402 14.7812 0.0763893 12.8201 0.00426723 10.2109C-0.0567591 7.99165 0.536861 6.41512 1.77958 5.51974C3.70468 4.12998 6.3732 5.04184 6.4897 5.08579C6.92244 5.23959 7.1499 5.70651 6.99456 6.13497C6.83922 6.56344 6.36765 6.78866 5.93492 6.63485C5.90718 6.62386 3.96543 5.97567 2.756 6.85457C1.9904 7.40938 1.62424 8.52449 1.66862 10.1614C1.72965 12.2543 2.37875 13.7979 3.60482 14.7372C5.06945 15.8633 7.06668 15.9347 8.33714 15.6491C8.78651 15.5502 9.23034 15.8249 9.3302 16.2698C9.43007 16.7147 9.15267 17.1542 8.7033 17.2531C8.21509 17.3684 7.64366 17.4343 7.0223 17.4343Z" fill="#ECA400"/>
<path d="M28.974 17.4344C28.3582 17.4344 27.7812 17.3684 27.293 17.2586C26.8436 17.1597 26.5607 16.7148 26.6661 16.2753C26.7659 15.8304 27.2153 15.5557 27.6591 15.6546C28.924 15.9402 30.9213 15.8688 32.3859 14.7427C33.612 13.7979 34.2666 12.2598 34.3221 10.167C34.3665 8.53 34.0059 7.41489 33.2347 6.86009C32.0253 5.98119 30.0724 6.63487 30.0558 6.64036C29.6231 6.78868 29.146 6.56346 28.9962 6.135C28.8464 5.70653 29.0683 5.23962 29.501 5.08581C29.612 5.04736 32.286 4.1355 34.2111 5.51977C35.4539 6.41515 36.0475 7.99167 35.9865 10.2109C35.9143 12.8201 35.0433 14.7812 33.4067 16.0446C32.0697 17.0773 30.4053 17.4344 28.974 17.4344Z" fill="#ECA400"/>
<path fill-rule="evenodd" clip-rule="evenodd" d="M5.48267 6.15949V2.84386C5.48267 1.47796 6.60074 0.370911 7.98025 0.370911H28.0166C28.6785 0.370911 29.3126 0.629772 29.7799 1.09242C30.2471 1.55506 30.5086 2.18294 30.5086 2.83836C30.5086 4.43559 30.5086 6.21457 30.5086 6.21457C30.4863 16.2661 24.8848 24.4175 17.9928 24.4175C11.0897 24.423 5.48267 16.2386 5.48267 6.15949Z" fill="#FBCB22"/>
<path d="M17.9653 18.7281C21.4964 18.7281 24.359 15.8937 24.359 12.3974C24.359 8.90107 21.4964 6.06674 17.9653 6.06674C14.4341 6.06674 11.5715 8.90107 11.5715 12.3974C11.5715 15.8937 14.4341 18.7281 17.9653 18.7281Z" fill="#FEEDB4"/>
<path d="M17.9654 19.7849C13.8504 19.7849 10.5077 16.4695 10.5077 12.4008C10.5077 8.33206 13.8504 5.01089 17.9654 5.01089C22.0804 5.01089 25.4231 8.32635 25.4231 12.4008C25.4231 16.4752 22.0804 19.7849 17.9654 19.7849ZM17.9654 5.34187C14.0348 5.34187 10.842 8.50896 10.842 12.4008C10.842 16.2926 14.0406 19.4597 17.9712 19.4597C21.9018 19.4597 25.0946 16.2869 25.0946 12.4008C25.0946 8.51466 21.896 5.34187 17.9654 5.34187Z" fill="#ECA400"/>
<path fill-rule="evenodd" clip-rule="evenodd" d="M17.7277 8.96244C17.7608 8.85781 17.8598 8.79242 17.9655 8.79242C18.0712 8.79242 18.1702 8.86435 18.2033 8.96244C18.4476 9.70791 18.8109 10.8196 18.9495 11.2446C18.9826 11.3492 19.0816 11.4146 19.1873 11.4146C19.6364 11.4146 20.8186 11.4146 21.6111 11.4146C21.7167 11.4146 21.8158 11.4866 21.8488 11.5847C21.8819 11.6893 21.8488 11.8004 21.7564 11.8593C21.1158 12.3236 20.1581 13.0102 19.7949 13.2718C19.709 13.3372 19.6694 13.4483 19.7024 13.5464C19.8411 13.9715 20.2044 15.0831 20.4487 15.8286C20.4817 15.9332 20.4487 16.0444 20.3563 16.1032C20.2704 16.1686 20.1515 16.1686 20.0657 16.1032C19.4251 15.6389 18.4674 14.9523 18.1042 14.6908C18.0183 14.6254 17.8995 14.6254 17.8136 14.6908C17.4504 14.9523 16.4927 15.6389 15.8521 16.1032C15.7663 16.1686 15.6474 16.1686 15.5615 16.1032C15.4757 16.0378 15.4361 15.9267 15.4691 15.8286C15.7134 15.0831 16.0767 13.9715 16.2154 13.5464C16.2484 13.4418 16.2154 13.3306 16.1229 13.2718C15.7597 13.0102 14.802 12.3236 14.1614 11.8593C14.0756 11.7939 14.0359 11.6827 14.069 11.5847C14.102 11.48 14.201 11.4146 14.3067 11.4146C15.0992 11.4146 16.2814 11.4146 16.7305 11.4146C16.8362 11.4146 16.9352 11.3427 16.9682 11.2446C17.1201 10.8261 17.4834 9.71444 17.7277 8.96244Z" fill="#FBCB22"/>
<path d="M9.32077 15.5655C9.12608 15.5655 8.94252 15.4498 8.85908 15.2626C6.673 10.1734 6.90106 5.35422 6.91219 5.15043C6.92887 4.87505 7.1625 4.66576 7.44063 4.68228C7.71876 4.6988 7.93013 4.93013 7.91344 5.20551C7.90788 5.2661 7.69651 10.0137 9.78246 14.877C9.88815 15.1304 9.77134 15.4223 9.51546 15.5269C9.45427 15.549 9.38752 15.5655 9.32077 15.5655Z" fill="#FEEDB4"/>
<path d="M11.5681 19.4815C11.4123 19.4815 11.2621 19.4099 11.1676 19.2832C10.6447 18.5892 10.1607 17.8347 9.73242 17.0471C9.59892 16.8047 9.68792 16.5073 9.93267 16.3751C10.1774 16.2429 10.4778 16.3311 10.6113 16.5734C11.0229 17.3169 11.4791 18.0329 11.9741 18.6884C12.141 18.9087 12.0909 19.2171 11.8684 19.3823C11.7794 19.4484 11.6737 19.4815 11.5681 19.4815Z" fill="#FEEDB4"/>
<path fill-rule="evenodd" clip-rule="evenodd" d="M31.3212 1.73511C31.3212 0.980311 30.7038 0.370331 29.9438 0.370331C25.3487 0.370331 10.5776 0.370331 5.98246 0.370331C5.22254 0.370331 4.6051 0.980311 4.6051 1.73511C4.6051 2.4899 5.22254 3.09988 5.98246 3.09988C10.5776 3.09988 25.3487 3.09988 29.9438 3.09988C30.7097 3.09988 31.3212 2.4899 31.3212 1.73511Z" fill="#FEEDB4"/>
<path d="M29.2391 1.97342H6.82304C6.69015 1.97342 6.58142 1.86877 6.58142 1.73659C6.58142 1.6044 6.69015 1.49976 6.82304 1.49976H29.2391C29.372 1.49976 29.4807 1.6044 29.4807 1.73659C29.4807 1.86877 29.372 1.97342 29.2391 1.97342Z" fill="#FBCB22"/>
</g>
<defs>
<clipPath id="clip0">
<rect width="36" height="44" fill="white" transform="translate(0 0.37262)"/>
</clipPath>
</defs>
</svg>
