<svg width="37" height="47" viewBox="0 0 37 47" fill="none" xmlns="http://www.w3.org/2000/svg">
<path d="M16.8841 45.2949C-3.8887 42.8511 0.0825706 23.9112 4.6648 14.7467C5.27577 19.0234 7.46505 19.0744 8.48332 18.5652C9.09429 4.51305 17.9024 1 22.23 1C17.6478 7.87335 28.3397 23.1475 29.8671 23.9112C31.089 24.5221 32.4128 19.5835 32.9219 17.0378C35.213 19.3289 42.8501 48.3497 16.8841 45.2949Z" fill="#F3705A" stroke="#F3705A" stroke-linejoin="round"/>
<path d="M17.7126 42.1089C5.84387 40.6835 8.1129 29.6369 10.731 24.2918C11.0801 26.7862 12.331 26.8159 12.9128 26.5189C13.2619 18.3231 18.2944 16.2741 20.7671 16.2741C18.149 20.2829 24.2579 29.1915 25.1306 29.6369C25.8288 29.9933 26.5851 27.1128 26.876 25.6281C28.1851 26.9643 32.5486 43.8906 17.7126 42.1089Z" fill="#FFD15C" stroke="#FFD15C" stroke-linejoin="round"/>
</svg>
