<svg width="25" height="24" viewBox="0 0 25 24" fill="none" xmlns="http://www.w3.org/2000/svg">
<path d="M12.5 11.25C12.0858 11.25 11.75 11.5858 11.75 12C11.75 12.4142 12.0858 12.75 12.5 12.75V11.25ZM15.5 12.75C15.9142 12.75 16.25 12.4142 16.25 12C16.25 11.5858 15.9142 11.25 15.5 11.25V12.75ZM12.5 15.25C12.0858 15.25 11.75 15.5858 11.75 16C11.75 16.4142 12.0858 16.75 12.5 16.75V15.25ZM15.5 16.75C15.9142 16.75 16.25 16.4142 16.25 16C16.25 15.5858 15.9142 15.25 15.5 15.25V16.75ZM9.5 11.25C9.08579 11.25 8.75 11.5858 8.75 12C8.75 12.4142 9.08579 12.75 9.5 12.75V11.25ZM9.51 12.75C9.92421 12.75 10.26 12.4142 10.26 12C10.26 11.5858 9.92421 11.25 9.51 11.25V12.75ZM9.5 15.25C9.08579 15.25 8.75 15.5858 8.75 16C8.75 16.4142 9.08579 16.75 9.5 16.75V15.25ZM9.51 16.75C9.92421 16.75 10.26 16.4142 10.26 16C10.26 15.5858 9.92421 15.25 9.51 15.25V16.75ZM18.75 7V19H20.25V7H18.75ZM17.5 20.25H7.5V21.75H17.5V20.25ZM6.25 19V7H4.75V19H6.25ZM7.5 5.75H9.5V4.25H7.5V5.75ZM15.5 5.75H17.5V4.25H15.5V5.75ZM7.5 20.25C6.80964 20.25 6.25 19.6904 6.25 19H4.75C4.75 20.5188 5.98122 21.75 7.5 21.75V20.25ZM18.75 19C18.75 19.6904 18.1904 20.25 17.5 20.25V21.75C19.0188 21.75 20.25 20.5188 20.25 19H18.75ZM20.25 7C20.25 5.48122 19.0188 4.25 17.5 4.25V5.75C18.1904 5.75 18.75 6.30964 18.75 7H20.25ZM6.25 7C6.25 6.30964 6.80964 5.75 7.5 5.75V4.25C5.98122 4.25 4.75 5.48122 4.75 7H6.25ZM12.5 12.75H15.5V11.25H12.5V12.75ZM12.5 16.75H15.5V15.25H12.5V16.75ZM11.5 3.75H13.5V2.25H11.5V3.75ZM13.5 6.25H11.5V7.75H13.5V6.25ZM11.5 6.25C10.8096 6.25 10.25 5.69036 10.25 5H8.75C8.75 6.51878 9.98122 7.75 11.5 7.75V6.25ZM14.75 5C14.75 5.69036 14.1904 6.25 13.5 6.25V7.75C15.0188 7.75 16.25 6.51878 16.25 5H14.75ZM13.5 3.75C14.1904 3.75 14.75 4.30964 14.75 5H16.25C16.25 3.48122 15.0188 2.25 13.5 2.25V3.75ZM11.5 2.25C9.98122 2.25 8.75 3.48122 8.75 5H10.25C10.25 4.30964 10.8096 3.75 11.5 3.75V2.25ZM9.5 12.75H9.51V11.25H9.5V12.75ZM9.5 16.75H9.51V15.25H9.5V16.75Z" fill="#475569"/>
</svg>
