<svg width="16" height="16" viewBox="0 0 16 16" fill="none" xmlns="http://www.w3.org/2000/svg">
<path fill-rule="evenodd" clip-rule="evenodd" d="M7.36468 3.04949C7.63555 3.16169 7.81217 3.42601 7.81217 3.71921V12.418C7.81217 12.7112 7.63555 12.9755 7.36468 13.0877C7.0938 13.1999 6.78201 13.1379 6.57469 12.9306L3.88742 10.2433H2.01298C1.61263 10.2433 1.28809 9.91874 1.28809 9.51839V6.6188C1.28809 6.21845 1.61263 5.8939 2.01298 5.8939H3.88742L6.57469 3.20663C6.78201 2.99931 7.0938 2.93729 7.36468 3.04949Z" fill="white"/>
<path fill-rule="evenodd" clip-rule="evenodd" d="M11.1879 2.94273C11.471 2.65964 11.93 2.65964 12.2131 2.94273C13.5241 4.25374 14.3362 6.06698 14.3362 8.06853C14.3362 10.0701 13.5241 11.8833 12.2131 13.1943C11.93 13.4774 11.471 13.4774 11.1879 13.1943C10.9048 12.9112 10.9048 12.4523 11.1879 12.1692C12.2381 11.1189 12.8864 9.67014 12.8864 8.06853C12.8864 6.46693 12.2381 5.01813 11.1879 3.96789C10.9048 3.6848 10.9048 3.22582 11.1879 2.94273ZM9.13758 4.99305C9.42067 4.70996 9.87965 4.70996 10.1627 4.99305C10.544 5.37426 10.855 5.82637 11.0744 6.32851C11.3076 6.86228 11.4366 7.4513 11.4366 8.06853C11.4366 9.26938 10.949 10.3577 10.1627 11.144C9.87965 11.4271 9.42067 11.4271 9.13758 11.144C8.85449 10.8609 8.85449 10.4019 9.13758 10.1189C9.6631 9.59334 9.98685 8.86943 9.98685 8.06853C9.98685 7.65481 9.90064 7.26314 9.7459 6.90897C9.59997 6.57498 9.39256 6.2732 9.13758 6.01821C8.85449 5.73512 8.85449 5.27614 9.13758 4.99305Z" fill="white"/>
</svg>
