<svg width="21" height="21" viewBox="0 0 21 21" fill="none" xmlns="http://www.w3.org/2000/svg">
<path id="icon-view" d="M8 16.3333V11.3333C8 10.4129 7.25381 9.66667 6.33333 9.66667H4.66667C3.74619 9.66667 3 10.4129 3 11.3333V16.3333C3 17.2538 3.74619 18 4.66667 18H6.33333C7.25381 18 8 17.2538 8 16.3333ZM8 16.3333V8C8 7.07953 8.74619 6.33333 9.66667 6.33333H11.3333C12.2538 6.33333 13 7.07953 13 8V16.3333M8 16.3333C8 17.2538 8.74619 18 9.66667 18H11.3333C12.2538 18 13 17.2538 13 16.3333M13 16.3333V4.66667C13 3.74619 13.7462 3 14.6667 3H16.3333C17.2538 3 18 3.74619 18 4.66667V16.3333C18 17.2538 17.2538 18 16.3333 18H14.6667C13.7462 18 13 17.2538 13 16.3333Z" stroke="#475569" stroke-width="1.5" stroke-linecap="round" stroke-linejoin="round"/>
</svg>
