<svg width="46" height="51" viewBox="0 0 46 51" fill="none" xmlns="http://www.w3.org/2000/svg">
<path d="M22.6837 5.82083V25.178" stroke="#333333" stroke-width="1.645" stroke-miterlimit="10"/>
<path d="M22.6837 10.6417C25.3461 10.6417 27.5045 8.4833 27.5045 5.82083C27.5045 3.15836 25.3461 1 22.6837 1C20.0212 1 17.8628 3.15836 17.8628 5.82083C17.8628 8.4833 20.0212 10.6417 22.6837 10.6417Z" fill="#E15C64" stroke="#333333" stroke-width="1.645" stroke-miterlimit="10"/>
<path d="M40.2864 42.5148H39.6624C38.5801 42.5148 37.5421 42.0848 36.7768 41.3195C36.0115 40.5542 35.5815 39.5162 35.5815 38.4339V29.8933C35.5815 28.8109 36.0115 27.7729 36.7768 27.0076C37.5421 26.2423 38.5801 25.8124 39.6624 25.8124H40.2864C41.3688 25.8124 42.4068 26.2423 43.1721 27.0076C43.9374 27.7729 44.3673 28.8109 44.3673 29.8933V38.4345C44.3672 39.5167 43.9372 40.5545 43.1719 41.3197C42.4066 42.0849 41.3687 42.5148 40.2864 42.5148Z" fill="#666766" stroke="#333333" stroke-width="1.645" stroke-miterlimit="10"/>
<path d="M5.0809 42.5148H5.70493C6.78725 42.5148 7.82524 42.0848 8.59056 41.3195C9.35588 40.5542 9.78583 39.5162 9.78583 38.4339V29.8933C9.78583 28.8109 9.35588 27.7729 8.59056 27.0076C7.82524 26.2423 6.78725 25.8124 5.70493 25.8124H5.0809C3.99858 25.8124 2.96059 26.2423 2.19527 27.0076C1.42995 27.7729 1 28.8109 1 29.8933V38.4345C1.00016 39.5167 1.43018 40.5545 2.19548 41.3197C2.96078 42.0849 3.99868 42.5148 5.0809 42.5148Z" fill="#666766" stroke="#333333" stroke-width="1.645" stroke-miterlimit="10"/>
<path d="M35.8877 49.8H9.47961C8.64918 49.8 7.85277 49.4701 7.26557 48.8829C6.67837 48.2957 6.34848 47.4993 6.34848 46.6689V20.1534C6.34848 19.323 6.67837 18.5266 7.26557 17.9393C7.85277 17.3521 8.64918 17.0223 9.47961 17.0223H35.8883C36.7188 17.0223 37.5152 17.3521 38.1024 17.9393C38.6896 18.5266 39.0195 19.323 39.0195 20.1534V46.6689C39.0193 47.4994 38.6893 48.2958 38.102 48.883C37.5147 49.4701 36.7182 49.8 35.8877 49.8Z" fill="#E0E0E0" stroke="#333333" stroke-width="1.645" stroke-miterlimit="10"/>
<path d="M15.3295 37.5683C14.8443 37.5683 14.3638 37.6639 13.9156 37.8495C13.4673 38.0352 13.06 38.3074 12.7169 38.6505C12.3738 38.9935 12.1017 39.4009 11.916 39.8491C11.7303 40.2974 11.6347 40.7778 11.6347 41.2631C11.6347 42.243 12.024 43.1827 12.7169 43.8756C13.4098 44.5686 14.3496 44.9578 15.3295 44.9578H16.3409V37.5683H15.3295Z" fill="white" stroke="#333333" stroke-width="1.645" stroke-miterlimit="10"/>
<path d="M16.3409 37.5683H20.5694V44.9584H16.3409V37.5683Z" fill="white" stroke="#333333" stroke-width="1.645" stroke-miterlimit="10"/>
<path d="M20.5694 37.5683H24.7979V44.9584H20.5694V37.5683Z" fill="white" stroke="#333333" stroke-width="1.645" stroke-miterlimit="10"/>
<path d="M30.0378 37.5683H29.0265V44.9584H30.0378C31.0178 44.9584 31.9575 44.5692 32.6504 43.8763C33.3433 43.1834 33.7326 42.2436 33.7326 41.2637C33.7327 40.7784 33.6372 40.2979 33.4515 39.8496C33.2659 39.4012 32.9938 38.9938 32.6507 38.6507C32.3076 38.3075 31.9002 38.0353 31.4519 37.8496C31.0036 37.6639 30.5231 37.5683 30.0378 37.5683Z" fill="white" stroke="#333333" stroke-width="1.645" stroke-miterlimit="10"/>
<path d="M24.7979 37.5683H29.0264V44.9584H24.7979V37.5683Z" fill="white" stroke="#333333" stroke-width="1.645" stroke-miterlimit="10"/>
<path d="M15.2594 31.0639C17.2612 31.0639 18.884 29.4411 18.884 27.4392C18.884 25.4374 17.2612 23.8146 15.2594 23.8146C13.2575 23.8146 11.6347 25.4374 11.6347 27.4392C11.6347 29.4411 13.2575 31.0639 15.2594 31.0639Z" fill="#E53030" stroke="#333333" stroke-width="1.645" stroke-miterlimit="10"/>
<path d="M30.108 31.0639C32.1098 31.0639 33.7326 29.4411 33.7326 27.4392C33.7326 25.4374 32.1098 23.8146 30.108 23.8146C28.1062 23.8146 26.4834 25.4374 26.4834 27.4392C26.4834 29.4411 28.1062 31.0639 30.108 31.0639Z" fill="#E53030" stroke="#333333" stroke-width="1.645" stroke-miterlimit="10"/>
</svg>
