<svg width="40" height="46" viewBox="0 0 40 46" fill="none" xmlns="http://www.w3.org/2000/svg">
<path d="M20.1283 5.85477V22.8469" stroke="#333333" stroke-width="1.46808" stroke-miterlimit="10"/>
<path d="M20.1282 10.0866C22.4654 10.0866 24.36 8.19194 24.36 5.85477C24.36 3.5176 22.4654 1.62295 20.1282 1.62295C17.791 1.62295 15.8964 3.5176 15.8964 5.85477C15.8964 8.19194 17.791 10.0866 20.1282 10.0866Z" fill="#E15C64" stroke="#333333" stroke-width="1.46808" stroke-miterlimit="10"/>
<path d="M35.5802 38.0655H35.0324C34.0823 38.0655 33.1711 37.6881 32.4993 37.0162C31.8275 36.3444 31.4501 35.4333 31.4501 34.4832V26.9861C31.4501 26.036 31.8275 25.1248 32.4993 24.453C33.1711 23.7812 34.0823 23.4038 35.0324 23.4038H35.5802C36.5303 23.4038 37.4414 23.7812 38.1132 24.453C38.785 25.1248 39.1625 26.036 39.1625 26.9861V34.4837C39.1623 35.4337 38.7848 36.3447 38.113 37.0164C37.4412 37.6881 36.5302 38.0655 35.5802 38.0655V38.0655Z" fill="#666766" stroke="#333333" stroke-width="1.46808" stroke-miterlimit="10"/>
<path d="M4.67617 38.0655H5.22396C6.17404 38.0655 7.08522 37.6881 7.75703 37.0162C8.42884 36.3444 8.80626 35.4333 8.80626 34.4832V26.9861C8.80626 26.036 8.42884 25.1248 7.75703 24.453C7.08522 23.7812 6.17404 23.4038 5.22396 23.4038H4.67617C3.72609 23.4038 2.81492 23.7812 2.1431 24.453C1.47129 25.1248 1.09387 26.036 1.09387 26.9861V34.4837C1.09401 35.4337 1.4715 36.3447 2.14329 37.0164C2.81509 37.6881 3.72618 38.0655 4.67617 38.0655V38.0655Z" fill="#666766" stroke="#333333" stroke-width="1.46808" stroke-miterlimit="10"/>
<path d="M31.719 44.4606H8.53739C7.80842 44.4606 7.10931 44.171 6.59386 43.6556C6.0784 43.1401 5.78882 42.441 5.78882 41.712V18.4362C5.78882 17.7072 6.0784 17.0081 6.59386 16.4927C7.10931 15.9772 7.80842 15.6876 8.53739 15.6876H31.7195C32.4485 15.6876 33.1476 15.9772 33.6631 16.4927C34.1785 17.0081 34.4681 17.7072 34.4681 18.4362V41.712C34.468 42.441 34.1783 43.1402 33.6627 43.6556C33.1472 44.171 32.448 44.4606 31.719 44.4606V44.4606Z" fill="#E0E0E0" stroke="#333333" stroke-width="1.46808" stroke-miterlimit="10"/>
<path d="M13.6727 33.7234C13.2467 33.7234 12.825 33.8072 12.4315 33.9702C12.038 34.1332 11.6804 34.3721 11.3793 34.6733C11.0781 34.9745 10.8392 35.332 10.6762 35.7255C10.5132 36.119 10.4293 36.5408 10.4293 36.9667C10.4293 37.8269 10.771 38.6518 11.3793 39.2601C11.9875 39.8683 12.8125 40.21 13.6727 40.21H14.5605V33.7234H13.6727Z" fill="white" stroke="#333333" stroke-width="1.46808" stroke-miterlimit="10"/>
<path d="M14.5603 33.7234H18.2722V40.2106H14.5603V33.7234Z" fill="white" stroke="#333333" stroke-width="1.46808" stroke-miterlimit="10"/>
<path d="M18.2723 33.7234H21.9842V40.2106H18.2723V33.7234Z" fill="white" stroke="#333333" stroke-width="1.46808" stroke-miterlimit="10"/>
<path d="M26.5839 33.7234H25.696V40.2106H26.5839C27.444 40.2106 28.269 39.8689 28.8772 39.2606C29.4855 38.6524 29.8272 37.8274 29.8272 36.9672C29.8273 36.5413 29.7434 36.1195 29.5805 35.7259C29.4175 35.3323 29.1786 34.9747 28.8774 34.6735C28.5763 34.3723 28.2187 34.1333 27.8252 33.9703C27.4316 33.8073 27.0098 33.7234 26.5839 33.7234V33.7234Z" fill="white" stroke="#333333" stroke-width="1.46808" stroke-miterlimit="10"/>
<path d="M21.9841 33.7234H25.696V40.2106H21.9841V33.7234Z" fill="white" stroke="#333333" stroke-width="1.46808" stroke-miterlimit="10"/>
<path d="M13.6111 28.0136C15.3683 28.0136 16.7929 26.5891 16.7929 24.8319C16.7929 23.0746 15.3683 21.6501 13.6111 21.6501C11.8538 21.6501 10.4293 23.0746 10.4293 24.8319C10.4293 26.5891 11.8538 28.0136 13.6111 28.0136Z" fill="#ACBD81" stroke="#333333" stroke-width="1.46808" stroke-miterlimit="10"/>
<path d="M26.6454 28.0136C28.4026 28.0136 29.8272 26.5891 29.8272 24.8319C29.8272 23.0746 28.4026 21.6501 26.6454 21.6501C24.8881 21.6501 23.4636 23.0746 23.4636 24.8319C23.4636 26.5891 24.8881 28.0136 26.6454 28.0136Z" fill="#ACBD81" stroke="#333333" stroke-width="1.46808" stroke-miterlimit="10"/>
</svg>
