<svg width="25" height="25" viewBox="0 0 25 25" fill="none" xmlns="http://www.w3.org/2000/svg">
<circle cx="12.2222" cy="12.2222" r="11.6111" fill="#154574" stroke="#CBD4E1" stroke-width="1.22222"/>
<path fill-rule="evenodd" clip-rule="evenodd" d="M8.7302 10.7708V9.09027C8.7302 6.76991 10.2936 4.88889 12.2223 4.88889C14.1509 4.88889 15.7143 6.76991 15.7143 9.09027V10.7708C16.4858 10.7708 17.1112 11.5232 17.1112 12.4514V16.6528C17.1112 17.5809 16.4858 18.3333 15.7143 18.3333H8.7302C7.95875 18.3333 7.33337 17.5809 7.33337 16.6528V12.4514C7.33337 11.5232 7.95875 10.7708 8.7302 10.7708ZM14.3175 9.09027V10.7708H10.127V9.09027C10.127 7.69806 11.0651 6.56944 12.2223 6.56944C13.3794 6.56944 14.3175 7.69806 14.3175 9.09027Z" fill="white"/>
</svg>
