<svg width="25" height="25" viewBox="0 0 25 25" fill="none" xmlns="http://www.w3.org/2000/svg">
<circle cx="12.2222" cy="12.2222" r="11.6111" fill="#154574" stroke="#CBD4E1" stroke-width="1.22222"/>
<path d="M12.2222 4.88889C10.2936 4.88889 8.99204 5.94343 8.99204 8.2638H10.3889C10.3889 6.87158 11.065 6.56944 12.2222 6.56944C13.3794 6.56944 14.3175 7.69806 14.3175 9.09027V10.7708H8.55555C7.2984 10.7708 7.21692 11.8912 7.33332 12.4514V16.6528C7.33332 17.5809 7.9587 18.3333 8.73015 18.3333H15.7143C16.4857 18.3333 17.1111 17.5809 17.1111 16.6528V12.4514C17.1111 11.5232 16.4857 10.7708 15.7143 10.7708V9.09027C15.7143 6.76991 14.1508 4.88889 12.2222 4.88889Z" fill="white"/>
</svg>
