<svg width="36" height="45" viewBox="0 0 36 45" fill="none" xmlns="http://www.w3.org/2000/svg">
<g clip-path="url(#clip0)">
<path fill-rule="evenodd" clip-rule="evenodd" d="M29.2962 42.2722C29.2962 41.1132 28.345 40.1738 27.1778 40.1738H8.88899C7.71669 40.1738 6.77063 41.1132 6.77063 42.2722C6.77063 43.4313 7.72183 44.3706 8.88899 44.3706H27.1778C28.3501 44.3706 29.2962 43.4313 29.2962 42.2722Z" fill="#8FA3BC"/>
<path d="M27.7376 34.2651H8.33435V42.4938H27.7376V34.2651Z" fill="#0A2445"/>
<path d="M23.7167 35.7954H12.3488V40.8368H23.7167V35.7954Z" fill="#FEEDB4"/>
<path d="M22.8454 40.3587H13.2206C13.1305 40.3587 13.0573 40.2869 13.0573 40.1972V36.3611C13.0573 36.2715 13.1305 36.1997 13.2206 36.1997H22.8482C22.9383 36.1997 23.0116 36.2715 23.0116 36.3611V40.1998C23.0116 40.2869 22.9383 40.3587 22.8454 40.3587ZM13.384 40.0358H22.682V36.5226H13.384V40.0358Z" fill="#FBCB22"/>
<path fill-rule="evenodd" clip-rule="evenodd" d="M8.33057 33.2285C8.39175 31.5266 13.8931 31.1686 18.0317 28.4258C22.1924 31.5211 27.6716 31.5321 27.7327 33.2285V34.264H8.33057V33.2285Z" fill="#FBCB22"/>
<path d="M26.274 33.4035H9.79124C9.72016 33.4035 9.65796 33.3429 9.65796 33.2713C9.65796 33.1997 9.71572 33.1392 9.79124 33.1392H26.2785C26.3496 33.1392 26.4118 33.1997 26.4118 33.2713C26.4118 33.3429 26.3496 33.4035 26.274 33.4035Z" fill="#ECA400"/>
<path fill-rule="evenodd" clip-rule="evenodd" d="M15.5302 23.1396C15.5302 23.1396 16.0864 23.9602 16.5481 25.4143C16.6983 25.8879 16.854 26.3946 16.8485 26.9289C16.8429 27.4741 16.6705 27.9698 16.5203 28.4435C16.0586 29.881 15.5357 30.7182 15.5357 30.7182C15.5357 32.0841 20.542 32.0841 20.542 30.7182C20.542 30.7182 20.0191 29.881 19.5574 28.4435C19.4017 27.9643 19.2348 27.4686 19.2292 26.9289C19.2237 26.3891 19.3794 25.8879 19.5296 25.4143C19.9913 23.9602 20.5476 23.1396 20.5476 23.1396C20.5476 21.7737 19.4239 20.6611 18.0444 20.6611C16.6538 20.6611 15.5302 21.7682 15.5302 23.1396Z" fill="#ECA400"/>
<path d="M7.0223 17.4342C5.59095 17.4342 3.9266 17.0716 2.58402 16.0389C0.947402 14.781 0.0763893 12.8199 0.00426723 10.2107C-0.0567591 7.99147 0.536861 6.41494 1.77958 5.51956C3.70468 4.1298 6.3732 5.04166 6.4897 5.0856C6.92244 5.23941 7.1499 5.70633 6.99456 6.13479C6.83922 6.56325 6.36765 6.78847 5.93492 6.63467C5.90718 6.62368 3.96543 5.97549 2.756 6.85439C1.9904 7.4092 1.62424 8.5243 1.66862 10.1613C1.72965 12.2541 2.37875 13.7977 3.60482 14.737C5.06945 15.8631 7.06668 15.9345 8.33714 15.6489C8.78651 15.55 9.23034 15.8247 9.3302 16.2696C9.43007 16.7146 9.15267 17.154 8.7033 17.2529C8.21509 17.3682 7.64366 17.4342 7.0223 17.4342Z" fill="#ECA400"/>
<path d="M28.974 17.434C28.3582 17.434 27.7812 17.3681 27.293 17.2582C26.8436 17.1594 26.5607 16.7144 26.6661 16.275C26.7659 15.83 27.2153 15.5554 27.6591 15.6543C28.924 15.9399 30.9213 15.8685 32.3859 14.7424C33.612 13.7976 34.2666 12.2595 34.3221 10.1666C34.3665 8.52966 34.0059 7.41456 33.2347 6.85975C32.0253 5.98085 30.0724 6.63454 30.0558 6.64003C29.6231 6.78834 29.146 6.56312 28.9962 6.13466C28.8464 5.7062 29.0683 5.23928 29.501 5.08547C29.612 5.04702 32.286 4.13516 34.2111 5.51943C35.4539 6.41481 36.0475 7.99134 35.9865 10.2106C35.9143 12.8198 35.0433 14.7808 33.4067 16.0443C32.0697 17.077 30.4053 17.434 28.974 17.434Z" fill="#ECA400"/>
<path fill-rule="evenodd" clip-rule="evenodd" d="M5.48267 6.15919V2.84356C5.48267 1.47765 6.60074 0.370605 7.98025 0.370605H28.0166C28.6785 0.370605 29.3126 0.629467 29.7799 1.09211C30.2471 1.55476 30.5086 2.18264 30.5086 2.83805C30.5086 4.43528 30.5086 6.21426 30.5086 6.21426C30.4863 16.2658 24.8848 24.4172 17.9928 24.4172C11.0897 24.4227 5.48267 16.2383 5.48267 6.15919Z" fill="#FBCB22"/>
<path d="M17.9653 18.7277C21.4964 18.7277 24.359 15.8934 24.359 12.3971C24.359 8.90074 21.4964 6.06641 17.9653 6.06641C14.4341 6.06641 11.5715 8.90074 11.5715 12.3971C11.5715 15.8934 14.4341 18.7277 17.9653 18.7277Z" fill="#FEEDB4"/>
<path d="M17.9654 19.7848C13.8504 19.7848 10.5077 16.4693 10.5077 12.4006C10.5077 8.3319 13.8504 5.01074 17.9654 5.01074C22.0804 5.01074 25.4231 8.3262 25.4231 12.4006C25.4231 16.475 22.0804 19.7848 17.9654 19.7848ZM17.9654 5.34172C14.0348 5.34172 10.842 8.5088 10.842 12.4006C10.842 16.2924 14.0406 19.4595 17.9712 19.4595C21.9018 19.4595 25.0946 16.2867 25.0946 12.4006C25.0946 8.51451 21.896 5.34172 17.9654 5.34172Z" fill="#ECA400"/>
<path fill-rule="evenodd" clip-rule="evenodd" d="M17.7277 8.9625C17.7608 8.85787 17.8598 8.79248 17.9655 8.79248C18.0712 8.79248 18.1702 8.86441 18.2033 8.9625C18.4476 9.70797 18.8109 10.8196 18.9495 11.2447C18.9826 11.3493 19.0816 11.4147 19.1873 11.4147C19.6364 11.4147 20.8186 11.4147 21.6111 11.4147C21.7167 11.4147 21.8158 11.4866 21.8488 11.5847C21.8819 11.6893 21.8488 11.8005 21.7564 11.8594C21.1158 12.3236 20.1581 13.0103 19.7949 13.2718C19.709 13.3372 19.6694 13.4484 19.7024 13.5465C19.8411 13.9715 20.2044 15.0832 20.4487 15.8286C20.4817 15.9333 20.4487 16.0444 20.3563 16.1033C20.2704 16.1687 20.1515 16.1687 20.0657 16.1033C19.4251 15.639 18.4674 14.9524 18.1042 14.6908C18.0183 14.6254 17.8995 14.6254 17.8136 14.6908C17.4504 14.9524 16.4927 15.639 15.8521 16.1033C15.7663 16.1687 15.6474 16.1687 15.5615 16.1033C15.4757 16.0379 15.4361 15.9267 15.4691 15.8286C15.7134 15.0832 16.0767 13.9715 16.2154 13.5465C16.2484 13.4418 16.2154 13.3307 16.1229 13.2718C15.7597 13.0103 14.802 12.3236 14.1614 11.8594C14.0756 11.794 14.0359 11.6828 14.069 11.5847C14.102 11.4801 14.201 11.4147 14.3067 11.4147C15.0992 11.4147 16.2814 11.4147 16.7305 11.4147C16.8362 11.4147 16.9352 11.3428 16.9682 11.2447C17.1201 10.8262 17.4834 9.71451 17.7277 8.9625Z" fill="#FBCB22"/>
<path d="M9.32077 15.5653C9.12608 15.5653 8.94252 15.4496 8.85908 15.2623C6.673 10.1732 6.90106 5.35401 6.91219 5.15022C6.92887 4.87484 7.1625 4.66554 7.44063 4.68207C7.71876 4.69859 7.93013 4.92991 7.91344 5.2053C7.90788 5.26588 7.69651 10.0135 9.78246 14.8768C9.88815 15.1302 9.77134 15.4221 9.51546 15.5267C9.45427 15.5487 9.38752 15.5653 9.32077 15.5653Z" fill="#FEEDB4"/>
<path d="M11.5681 19.4812C11.4123 19.4812 11.2621 19.4096 11.1676 19.2829C10.6447 18.589 10.1607 17.8344 9.73242 17.0468C9.59892 16.8045 9.68792 16.5071 9.93267 16.3749C10.1774 16.2427 10.4778 16.3308 10.6113 16.5732C11.0229 17.3167 11.4791 18.0327 11.9741 18.6881C12.141 18.9084 12.0909 19.2169 11.8684 19.3821C11.7794 19.4482 11.6737 19.4812 11.5681 19.4812Z" fill="#FEEDB4"/>
<path fill-rule="evenodd" clip-rule="evenodd" d="M31.3212 1.73489C31.3212 0.980097 30.7038 0.370117 29.9438 0.370117C25.3487 0.370117 10.5776 0.370117 5.98246 0.370117C5.22254 0.370117 4.6051 0.980097 4.6051 1.73489C4.6051 2.48969 5.22254 3.09967 5.98246 3.09967C10.5776 3.09967 25.3487 3.09967 29.9438 3.09967C30.7097 3.09967 31.3212 2.48969 31.3212 1.73489Z" fill="#FEEDB4"/>
<path d="M29.2391 1.97317H6.82304C6.69015 1.97317 6.58142 1.86853 6.58142 1.73634C6.58142 1.60416 6.69015 1.49951 6.82304 1.49951H29.2391C29.372 1.49951 29.4807 1.60416 29.4807 1.73634C29.4807 1.86853 29.372 1.97317 29.2391 1.97317Z" fill="#FBCB22"/>
</g>
<defs>
<clipPath id="clip0">
<rect width="36" height="44" fill="white" transform="translate(0 0.372559)"/>
</clipPath>
</defs>
</svg>
